{"asset":{"generator":"3D Builder","version":"2.0"},"scene":0,"scenes":[{"nodes":[0,1]}],"nodes":[{"mesh":0,"matrix":[1,0,0,0,0,-1.1920928955078125E-7,-0.99999988079071045,0,0,0.99999988079071045,-1.1920928955078125E-7,0,-0.0017047530272975564,0.085304677486419678,-0.20000629127025604,1]},{"mesh":1,"matrix":[1,0,0,0,0,-1.1920928955078125E-7,-0.99999988079071045,0,0,0.99999988079071045,-1.1920928955078125E-7,0,-0.0017047530272975564,0.085304677486419678,-0.20000629127025604,1]}],"meshes":[{"primitives":[{"attributes":{"POSITION":0,"TEXCOORD_0":1},"mode":4,"indices":2,"material":0}]},{"primitives":[{"attributes":{"POSITION":3,"TEXCOORD_0":4},"mode":4,"indices":5,"material":1}]}],"materials":[{"name":"63","pbrMetallicRoughness":{"baseColorFactor":[1,1,1,1],"metallicFactor":1,"roughnessFactor":1,"baseColorTexture":{"index":0,"texCoord":0},"metallicRoughnessTexture":{"index":1,"texCoord":0}}},{"name":"65","pbrMetallicRoughness":{"baseColorFactor":[1,1,1,1],"metallicFactor":1,"roughnessFactor":1,"baseColorTexture":{"index":2,"texCoord":0},"metallicRoughnessTexture":{"index":3,"texCoord":0}}}],"textures":[{"source":0,"sampler":0},{"source":1,"sampler":0},{"source":2,"sampler":0},{"source":3,"sampler":0}],"images":[{"uri":"texture_0_6195987693227547908.png"},{"uri":"texture_1_17319628118832143767.png"},{"uri":"texture_4_11563080508590297124.png"},{"uri":"texture_1_17650290037541193437.png"}],"samplers":[{"magFilter":9729,"wrapS":10497,"wrapT":10497}],"accessors":[{"bufferView":0,"byteOffset":0,"count":19,"componentType":5126,"type":"VEC3","min":[-0.094811007380485535,-0.25000631809234619,-0.085304707288742065],"max":[0.098220512270927429,-0.15000629425048828,0.0832863301038742]},{"bufferView":1,"byteOffset":0,"count":19,"componentType":5126,"type":"VEC2"},{"bufferView":2,"byteOffset":0,"count":60,"componentType":5125,"type":"SCALAR"},{"bufferView":3,"byteOffset":0,"count":20,"componentType":5126,"type":"VEC3","min":[-0.054227355867624283,-0.25000631809234619,-0.016448698937892914],"max":[0.059007663279771805,-0.15000630915164948,0.083927728235721588]},{"bufferView":4,"byteOffset":0,"count":20,"componentType":5126,"type":"VEC2"},{"bufferView":5,"byteOffset":0,"count":60,"componentType":5125,"type":"SCALAR"}],"bufferViews":[{"buffer":0,"byteOffset":0,"byteLength":228,"byteStride":12,"target":34962},{"buffer":0,"byteOffset":228,"byteLength":152,"byteStride":8,"target":34962},{"buffer":0,"byteOffset":380,"byteLength":240,"target":34963},{"buffer":0,"byteOffset":620,"byteLength":240,"byteStride":12,"target":34962},{"buffer":0,"byteOffset":860,"byteLength":160,"byteStride":8,"target":34962},{"buffer":0,"byteOffset":1020,"byteLength":240,"target":34963}],"buffers":[{"byteLength":1260}]}